<?xml version="1.0" standalone="no"?>
<!DOCTYPE svg PUBLIC "-//W3C//DTD SVG 20010904//EN"
 "http://www.w3.org/TR/2001/REC-SVG-20010904/DTD/svg10.dtd">
<svg version="1.0" xmlns="http://www.w3.org/2000/svg"
 width="312.000000pt" height="308.000000pt" viewBox="0 0 312.000000 308.000000"
 preserveAspectRatio="xMidYMid meet">
<metadata>
Created by potrace 1.16, written by Peter Selinger 2001-2019
</metadata>
<g transform="translate(0.000000,308.000000) scale(0.100000,-0.100000)"
fill="#e5e5e5" stroke="none">
<path d="M1377 2928 c-8 -18 -25 -61 -38 -95 -13 -35 -28 -63 -34 -63 -5 0
-44 34 -86 76 -67 67 -79 75 -97 65 -11 -6 -23 -23 -26 -38 -23 -121 -28 -143
-34 -147 -4 -2 -37 18 -72 45 -66 49 -99 59 -118 37 -5 -7 -18 -51 -27 -98 -9
-47 -18 -86 -20 -88 -1 -2 -23 11 -49 28 -65 45 -87 39 -108 -30 -9 -30 -19
-68 -23 -84 -5 -23 -10 -27 -28 -23 -12 2 -50 10 -84 17 -83 18 -93 10 -93
-81 0 -75 1 -75 -66 -58 -56 14 -78 0 -71 -45 24 -144 29 -187 24 -193 -4 -3
-25 0 -47 7 -36 12 -43 12 -57 -3 -16 -16 -16 -26 0 -159 10 -79 19 -152 20
-162 2 -15 -8 -21 -50 -31 -66 -15 -83 -29 -83 -69 0 -42 41 -153 95 -258 25
-48 45 -92 45 -98 0 -6 -31 -10 -78 -10 -66 0 -82 -3 -97 -20 -17 -19 -17 -21
10 -62 16 -24 46 -65 67 -91 21 -27 38 -53 38 -59 0 -5 -18 -35 -40 -67 -22
-31 -40 -62 -40 -68 0 -35 126 -132 193 -148 15 -4 30 -12 33 -17 4 -5 -15
-32 -42 -59 -44 -44 -47 -50 -36 -74 8 -16 20 -25 35 -25 54 0 186 -43 286
-93 58 -30 187 -103 286 -162 242 -146 464 -259 555 -284 89 -25 180 -27 264
-5 103 26 317 135 572 292 254 155 467 252 555 252 33 0 41 4 51 25 11 24 8
30 -35 73 -26 26 -47 50 -47 53 0 3 34 23 75 43 78 39 155 102 155 128 0 8
-18 40 -40 72 -22 31 -40 62 -40 68 0 5 22 38 48 72 27 33 57 73 67 89 17 26
17 28 0 47 -15 17 -31 20 -97 20 -45 0 -78 4 -78 10 0 5 23 54 50 107 51 99
90 209 90 255 0 34 -20 48 -83 63 -42 10 -52 16 -50 31 1 10 10 83 20 162 16
131 16 144 1 158 -14 14 -22 15 -49 5 -68 -23 -66 -27 -39 137 11 64 11 76 -3
89 -13 13 -23 14 -61 4 -67 -17 -66 -18 -66 58 0 90 -10 100 -88 82 -113 -26
-110 -26 -117 5 -4 16 -14 54 -23 84 -21 69 -47 76 -111 30 -23 -17 -44 -30
-46 -28 -2 2 -11 41 -20 88 -9 47 -22 91 -27 98 -19 22 -52 12 -118 -38 -64
-48 -65 -48 -76 -27 -6 12 -17 53 -24 90 -11 62 -27 87 -55 87 -4 0 -42 -34
-85 -76 -50 -49 -80 -71 -85 -64 -4 7 -22 48 -40 93 -28 70 -37 82 -58 85 -22
3 -35 -9 -84 -72 -32 -41 -60 -75 -63 -75 -3 0 -31 33 -63 74 -67 88 -97 98
-120 43z m117 -173 c29 -39 56 -65 67 -65 11 0 38 26 66 65 27 35 53 64 59 65
6 0 23 -33 38 -74 27 -73 50 -106 75 -106 7 0 44 30 82 67 38 36 71 64 74 61
3 -3 10 -34 16 -69 12 -69 31 -99 61 -99 10 0 48 23 84 51 36 28 68 48 71 45
3 -2 11 -36 19 -73 24 -118 22 -113 52 -113 15 0 44 11 64 25 20 14 41 25 46
25 12 0 31 -43 38 -90 11 -68 17 -69 172 -33 21 5 22 3 22 -70 0 -48 4 -78 13
-83 13 -10 49 -9 85 2 27 8 27 7 6 -110 -8 -49 -13 -101 -9 -114 6 -24 8 -24
66 -18 56 7 60 6 56 -11 -3 -10 -8 -49 -12 -88 -10 -111 -13 -117 -49 -113
l-31 3 0 62 c0 34 -5 67 -12 74 -8 8 -45 10 -123 7 l-111 -5 6 62 c10 90 3 93
-132 59 -60 -15 -116 -25 -126 -21 -14 5 -17 20 -17 85 0 133 -23 134 -162 7
-56 -52 -106 -95 -110 -95 -5 0 -8 17 -8 38 0 40 -14 62 -39 62 -22 0 -157
-105 -248 -193 l-82 -80 -103 98 c-93 88 -128 117 -204 165 -20 13 -25 12 -43
-4 -14 -12 -21 -31 -21 -53 0 -19 -4 -33 -9 -31 -5 2 -55 45 -111 96 -135 124
-160 123 -160 -9 0 -43 -4 -80 -9 -83 -11 -7 -115 10 -180 31 -67 21 -86 11
-86 -43 0 -22 4 -51 8 -66 l7 -26 -99 5 c-54 3 -110 3 -124 -1 -24 -6 -26 -11
-29 -74 l-3 -67 -32 -3 c-18 -2 -33 0 -33 5 0 11 -19 142 -25 181 l-6 33 60
-7 c77 -8 79 -4 57 130 -20 127 -21 119 11 111 82 -22 93 -12 93 81 0 41 3 74
8 74 4 0 39 -7 79 -17 85 -19 97 -14 107 48 4 23 13 54 21 70 l15 29 42 -30
c22 -17 54 -30 69 -30 30 0 39 18 54 120 12 76 15 77 89 21 37 -28 75 -51 85
-51 26 0 48 29 55 75 13 77 18 95 26 95 4 0 38 -29 74 -65 36 -36 71 -65 77
-65 24 0 47 33 75 106 16 40 33 74 39 74 5 0 32 -30 59 -65z m-382 -740 c86
-73 119 -95 138 -93 23 3 25 8 28 56 2 28 7 52 11 52 4 0 56 -45 114 -101 73
-69 109 -111 115 -132 7 -27 13 -32 38 -32 23 0 32 7 46 35 20 44 215 233 230
224 6 -4 8 -22 4 -42 -6 -41 7 -62 38 -62 12 0 68 40 133 94 119 101 123 102
123 26 0 -25 5 -40 16 -44 25 -9 115 -7 178 5 32 6 60 8 63 6 9 -10 -45 -83
-81 -110 l-36 -28 0 -93 c0 -123 4 -126 111 -97 45 11 84 19 89 16 16 -10 30
-97 30 -189 0 -73 4 -98 16 -110 20 -20 33 -20 56 1 14 12 18 31 18 79 0 54 4
68 34 112 19 28 42 73 52 99 9 26 21 52 25 57 10 12 187 -10 205 -25 23 -19
-45 -179 -136 -323 -34 -54 -39 -68 -30 -86 9 -18 20 -20 90 -20 51 0 80 -4
80 -11 0 -6 -18 -36 -40 -68 -22 -31 -40 -62 -40 -69 0 -7 16 -36 35 -65 19
-28 35 -59 35 -67 0 -23 -99 -78 -169 -94 -104 -24 -113 -43 -50 -111 23 -25
39 -48 36 -51 -3 -4 -42 -19 -87 -35 -94 -33 -174 -75 -475 -252 -121 -72
-251 -145 -290 -164 l-70 -33 -3 27 c-15 156 -88 228 -232 228 -140 0 -212
-64 -229 -203 l-6 -52 -72 34 c-40 19 -144 77 -230 129 -289 171 -407 236
-495 272 -48 19 -94 35 -102 35 -31 0 -26 23 13 65 23 25 41 48 41 53 0 24
-32 44 -89 57 -72 17 -171 72 -171 95 0 8 16 39 35 67 19 29 35 58 35 66 0 7
-20 40 -44 74 -25 34 -42 64 -39 67 4 3 39 6 78 6 59 0 75 4 90 20 17 19 16
21 -17 72 -82 125 -168 314 -153 337 6 11 190 35 210 28 8 -4 15 -13 15 -22 0
-20 45 -111 76 -152 20 -26 24 -44 24 -96 0 -72 21 -104 59 -92 25 8 23 -3 27
120 2 55 9 120 16 145 16 51 14 51 121 25 92 -23 97 -18 97 99 l0 91 -49 42
c-27 23 -54 56 -60 74 -11 31 -10 31 17 25 15 -3 66 -9 114 -12 107 -8 118 -2
118 67 0 27 2 49 5 49 3 0 56 -43 117 -95z m-494 -129 c45 -10 67 -18 110 -39
38 -19 43 -24 40 -52 -3 -33 -3 -33 -91 -14 -70 16 -86 9 -107 -49 -22 -59
-28 -60 -50 -9 -28 63 -45 158 -30 167 12 7 91 5 128 -4z m2014 -42 c-4 -52
-41 -159 -56 -159 -5 0 -15 18 -22 39 -25 72 -45 79 -138 51 -55 -17 -70 -11
-64 26 2 18 19 32 68 56 35 17 68 29 72 27 4 -3 15 -1 24 4 9 5 39 8 67 7 l52
-2 -3 -49z m-972 -1440 c35 -32 40 -41 40 -81 0 -39 -5 -50 -35 -79 -62 -58
-153 -58 -212 1 -27 27 -33 40 -33 77 1 74 54 118 142 118 52 0 62 -3 98 -36z"/>
<path d="M985 1205 c-27 -26 -34 -80 -15 -115 13 -25 71 -43 101 -31 52 19 75
68 55 116 -25 59 -97 75 -141 30z"/>
<path d="M2027 1219 c-11 -6 -25 -27 -33 -46 -14 -31 -13 -38 4 -66 49 -85
162 -61 162 34 0 71 -73 113 -133 78z"/>
</g>
</svg>
